<svg xmlns="http://www.w3.org/2000/svg" viewBox="0 0 52 52"><defs><style>.cls-1{fill:#fbb03b;}.cls-2{fill:#fff;}</style></defs><title>Asset 7</title><g id="Layer_2" data-name="Layer 2"><g id="App_Icon_Kit_A" data-name="App Icon Kit A"><rect class="cls-1" width="52" height="52"/><circle class="cls-2" cx="28.29" cy="11.21" r="5.08"/><path class="cls-2" d="M15.65,21.51c-.22.54,1.27,1.25,3.51,4A6.08,6.08,0,0,1,20.87,29a5,5,0,0,1-.19,1.56c-1.05,3.53-12.22,12.56-12,13s9.05-2.83,12.65-5.47c.33-.24,1.35-1,1.91-.68s.38,1.38.29,2c-.57,4.29-1.74,6.9-1.42,7.13.5.34,5.52-4.18,9.72-11.92,5.61-10.32,7.06-21,6-21.39-.38-.13-.78,1.16-3,3.18a17.24,17.24,0,0,1-5,3.32,18.48,18.48,0,0,1-5,1.22,36.2,36.2,0,0,1-4.59.29C17,21.35,15.84,21,15.65,21.51Z"/></g></g></svg>